# xmcd
#
# Track frame offsets: 
#        150
#        16025
#        31977
#        50817
#        67016
#
# Disc length: 1129 seconds
#
# Revision: 0
# Processed by: cddbd v1.5.1PL0 Copyright (c) Steve Scherf et al.
# Submitted via: ExactAudioCopy v0.95b1
#
DISCID=3c046705
DTITLE=Lazy James Band - Lazy James Band
DYEAR=1997
DGENRE=Rock
TTITLE0=Long Black Train
TTITLE1=Talkin' About My Baby 
TTITLE2=I Failed You
TTITLE3=When Night Comes 'Round
TTITLE4=I Just Want a Friend
EXTD=
EXTT0=
EXTT1=
EXTT2=
EXTT3=
EXTT4=
PLAYORDER=
